<svg width="21" height="20" viewBox="0 0 21 20" fill="none" xmlns="http://www.w3.org/2000/svg">
<path d="M0.726562 5.56263H5.1427V20H0.726562V5.56263ZM17.6692 6.45435C18.5468 6.9356 19.2687 7.66454 19.8348 8.64119C20.401 9.61783 20.6841 10.6157 20.6841 11.6348V20H16.2255V11.6348C16.2255 11.4084 16.1406 11.1536 15.9707 10.8705C15.8009 10.5874 15.6452 10.4034 15.5036 10.3185C15.2772 10.1769 14.9658 10.1062 14.5694 10.1062C14.1731 10.1062 13.8617 10.1628 13.6353 10.276L11.8094 11.1677V20H7.35077V5.56263H11.8094V6.24204C12.6869 5.84572 13.6777 5.66171 14.7818 5.69002C15.8858 5.71833 16.8483 5.97311 17.6692 6.45435ZM2.93463 0C3.55742 0 4.08113 0.212314 4.50576 0.636943C4.93038 1.06157 5.1427 1.58528 5.1427 2.20807C5.1427 2.83086 4.93038 3.36164 4.50576 3.80042C4.08113 4.23921 3.55742 4.4586 2.93463 4.4586C2.31184 4.4586 1.78813 4.23921 1.36351 3.80042C0.938877 3.36164 0.726562 2.83086 0.726562 2.20807C0.726562 1.58528 0.938877 1.06157 1.36351 0.636943C1.78813 0.212314 2.31184 0 2.93463 0Z" fill="#FBF9F8"/>
</svg>
